<svg width="240" height="48" viewBox="0 0 240 48" fill="none" xmlns="http://www.w3.org/2000/svg">
  <!-- Icon -->
  <g id="icon">
    <rect x="8" y="8" width="32" height="32" rx="6" fill="url(#gradient-h)"/>
    <path d="M14 16v12c0 3.3 2.7 6 6 6h8c3.3 0 6-2.7 6-6V16" stroke="white" stroke-width="2.5" stroke-linecap="round" fill="none"/>
    <circle cx="24" cy="12" r="2" fill="white"/>
    <circle cx="14" cy="16" r="1.5" fill="white"/>
    <circle cx="34" cy="16" r="1.5" fill="white"/>
    <circle cx="24" cy="28" r="1.5" fill="white"/>
    <path d="M14 16L24 28L34 16" stroke="white" stroke-width="0.5" opacity="0.6"/>
  </g>
  
  <!-- Wordmark -->
  <g id="text">
    <!-- UIP -->
    <path d="M56 32V18.5C56 16.6 57.6 15 59.5 15C61.4 15 63 16.6 63 18.5V28C63 30.8 65.2 33 68 33C70.8 33 73 30.8 73 28V18.5C73 16.6 74.6 15 76.5 15C78.4 15 80 16.6 80 18.5V28C80 34.6 74.6 40 68 40C61.4 40 56 34.6 56 28V32Z" fill="#1e293b"/>
    <path d="M90 18C90 16.3 91.3 15 93 15C94.7 15 96 16.3 96 18V37C96 38.7 94.7 40 93 40C91.3 40 90 38.7 90 37V18Z" fill="#1e293b"/>
    <path d="M106 18C106 16.3 107.3 15 109 15H117C121.4 15 125 18.6 125 23C125 27.4 121.4 31 117 31H112V37C112 38.7 110.7 40 109 40C107.3 40 106 38.7 106 37V18ZM112 25H117C118.1 25 119 24.1 119 23C119 21.9 118.1 21 117 21H112V25Z" fill="#1e293b"/>
    
    <!-- Tagline -->
    <text x="56" y="46" font-family="Inter, system-ui, sans-serif" font-size="8" font-weight="400" fill="#64748b" letter-spacing="0.8">UNIFIED INTEGRATION INTELLIGENCE PLATFORM</text>
  </g>
  
  <defs>
    <linearGradient id="gradient-h" x1="8" y1="8" x2="40" y2="40">
      <stop offset="0%" stop-color="#1e40af"/>
      <stop offset="100%" stop-color="#3b82f6"/>
    </linearGradient>
  </defs>
</svg>